<svg xmlns="http://www.w3.org/2000/svg" xmlns:xlink="http://www.w3.org/1999/xlink" width="99.721" height="31.212" viewBox="0 0 99.721 31.212">
  <defs>
    <clipPath id="clip-path">
      <path id="Path_1301" data-name="Path 1301" d="M188.4,417.347l-17.431-17.431a1.991,1.991,0,0,0-2.815,0L150.721,417.35a3.982,3.982,0,0,0,.152,5.775l7.109,6.4a3.983,3.983,0,0,0,5.256.064l3.735-3.2a3.979,3.979,0,0,1,5.178,0l3.734,3.2a3.983,3.983,0,0,0,5.257-.064l7.106-6.4A3.985,3.985,0,0,0,188.4,417.347Z" transform="translate(-149.555 -399.334)" fill="#8b72fc"/>
    </clipPath>
  </defs>
  <g id="Group_445" data-name="Group 445" transform="translate(-149.555 -399.333)">
    <text id="techrity" transform="translate(195.276 419.654)" font-size="14" font-family="Poppins-Medium, Poppins" font-weight="500"><tspan x="0" y="0">techrity</tspan></text>
    <g id="Group_448" data-name="Group 448" transform="translate(149.555 399.333)">
      <path id="Path_1294" data-name="Path 1294" d="M188.4,417.347l-17.431-17.431a1.991,1.991,0,0,0-2.815,0L150.721,417.35a3.982,3.982,0,0,0,.152,5.775l7.109,6.4a3.983,3.983,0,0,0,5.256.064l3.735-3.2a3.979,3.979,0,0,1,5.178,0l3.734,3.2a3.983,3.983,0,0,0,5.257-.064l7.106-6.4A3.985,3.985,0,0,0,188.4,417.347Z" transform="translate(-149.555 -399.334)" fill="#8b72fc"/>
      <g id="Group_447" data-name="Group 447" clip-path="url(#clip-path)">
        <g id="Group_445-2" data-name="Group 445" transform="translate(15.053 4.021)">
          <path id="Path_1295" data-name="Path 1295" d="M260.563,437.737c.182-1.527.5-1.882.5-2.5a3.39,3.39,0,0,0-1.8-2.6c-1.517-.849-4.163-.179-9.393,1.2a3.953,3.953,0,0,1-1.7.1,3.886,3.886,0,0,1-2-1,71.09,71.09,0,0,0,8.594-2.8c2.81-1.116,6.16-3.822,8.344-5,1.4.467,1.948,2.439,3.347,2.905l-1.8,2.4a33.2,33.2,0,0,0-3,8.992,1.21,1.21,0,0,1-.9-.3C260.486,438.85,260.48,438.428,260.563,437.737Z" transform="translate(-246.176 -425.142)" fill="#fff"/>
          <path id="Path_1296" data-name="Path 1296" d="M282.767,479.849a1.777,1.777,0,0,0,.9.3c.649.022,1.165-.373,2.1-1.3.581-.576,1.308-1.342,2.1-2.3a4.027,4.027,0,0,0-2.1.3Z" transform="translate(-277.066 -468.518)" fill="#fff"/>
          <path id="Path_1297" data-name="Path 1297" d="M257.754,485.126a7.1,7.1,0,0,0,.859-.045,8.145,8.145,0,0,0,1.239-.254,9.49,9.49,0,0,0,2.9-1.7l-3.2.6a2.585,2.585,0,0,0-1.2.6A2.558,2.558,0,0,0,257.754,485.126Z" transform="translate(-255.95 -474.095)" fill="#fff"/>
        </g>
        <g id="Group_446" data-name="Group 446" transform="translate(2.44 18.57)">
          <path id="Path_1298" data-name="Path 1298" d="M169.316,520.052c.09,1.535-.158,1.94-.053,2.547a3.39,3.39,0,0,0,2.227,2.242c1.642.569,4.129-.556,9.035-2.83a3.955,3.955,0,0,1,1.655-.4,3.885,3.885,0,0,1,2.143.633,71.072,71.072,0,0,0-7.968,4.263c-2.569,1.593-5.392,4.846-7.334,6.39-1.459-.213-2.347-2.058-3.806-2.271l1.349-2.677a33.21,33.21,0,0,0,1.372-9.379,1.21,1.21,0,0,1,.938.137C169.2,518.943,169.276,519.357,169.316,520.052Z" transform="translate(-165.215 -518.536)" fill="#fff"/>
          <path id="Path_1299" data-name="Path 1299" d="M223.808,525.614a1.778,1.778,0,0,0-.938-.137c-.643.092-1.082.572-1.838,1.647-.471.67-1.051,1.551-1.662,2.631a4.027,4.027,0,0,0,2.013-.664Z" transform="translate(-210.934 -524.382)" fill="#fff"/>
          <path id="Path_1300" data-name="Path 1300" d="M248.067,523.944a7.088,7.088,0,0,0-.838.2,8.145,8.145,0,0,0-1.175.468,9.493,9.493,0,0,0-2.554,2.181l3.042-1.152a2.585,2.585,0,0,0,1.075-.8A2.556,2.556,0,0,0,248.067,523.944Z" transform="translate(-231.304 -523.101)" fill="#fff"/>
        </g>
      </g>
    </g>
  </g>
</svg>
